<?xml version="1.0" encoding="UTF-8" standalone="no"?>
<svg width="58px" height="59px" viewBox="0 0 58 59" version="1.1" xmlns="http://www.w3.org/2000/svg" xmlns:xlink="http://www.w3.org/1999/xlink">
    <!-- Generator: Sketch 46.2 (44496) - http://www.bohemiancoding.com/sketch -->
    <title>plane</title>
    <desc>Created with Sketch.</desc>
    <defs></defs>
    <g id="Page-1" stroke="none" stroke-width="1" fill="none" fill-rule="evenodd">
        <g id="Contact---1-Col" transform="translate(-884.000000, -908.000000)">
            <g id="plane" transform="translate(885.000000, 900.000000)">
                <path d="M51.3898213,6.61364287 C48.7828913,4.00417936 41.8175002,10.2832009 37.2146395,14.8089892 L17.6626645,12.5257086 C17.3775316,12.4849358 17.0923986,12.6072544 16.8887322,12.8111187 L15.0964678,14.6051249 C14.8928014,14.8089892 14.9335347,15.175945 15.2186677,15.2982636 L23.3245906,19.4163232 L22.4691917,20.2725534 C22.3062586,20.4356449 22.3062586,20.7618278 22.4691917,20.9249193 L23.0394576,21.4957394 C23.2023908,21.6588309 23.528257,21.6588309 23.6911901,21.4957394 L24.9539218,20.2317805 L29.9233821,22.7596983 C26.5017865,26.836985 23.0394576,31.3220004 21.0027936,33.8906911 L14.404002,33.931464 C14.1188691,33.8906911 13.8337361,34.0130097 13.6300697,34.216874 L13.100537,34.7469213 C12.9376039,34.9100128 12.9783372,35.15465 13.1820036,35.2769686 L19.3734623,38.6203437 L22.7135914,44.8178195 C22.8357912,45.0216839 23.0801909,45.0624567 23.243124,44.8993653 L23.7726567,44.369318 C23.9763231,44.1654536 24.0577897,43.8800436 24.0577897,43.5946335 L24.0985229,36.989429 C26.6647197,34.9507856 31.1453806,31.4443191 35.2187087,28.0601711 L37.7441721,33.0344609 L36.4814404,34.2984198 C36.3185073,34.4615112 36.3185073,34.7876942 36.4814404,34.9507856 L37.0517063,35.5216058 C37.2146395,35.6846972 37.5405057,35.6846972 37.7034388,35.5216058 L38.5588377,34.6653756 L42.6728991,42.7791762 C42.795099,43.0645862 43.1616985,43.146132 43.3653649,42.9014948 L45.1576293,41.1074886 C45.3612957,40.9036243 45.4427623,40.6182142 45.4427623,40.3328041 L43.1616985,20.7618278 C47.6830927,16.2360396 53.9967513,9.22310638 51.3898213,6.61364287 Z" id="Shape" fill="#A5A5A5" fill-rule="nonzero" transform="translate(32.500000, 25.500000) rotate(379.000000) translate(-32.500000, -25.500000) "></path>
                <path d="M17.826206,33 C9.90529059,35.3652968 4.62468032,38.4063927 1.98437519,42.1232877 C-1.97608251,47.6986301 0.499203552,52.260274 4.95471847,54.2876712 C9.41023338,56.3150685 25.7471214,55.3013699 28.2224075,58.8493151 C30.6976935,62.3972603 34.163094,61.890411 30.2026363,70" id="Path-8" stroke="#A5A5A5" stroke-width="2" stroke-dasharray="6,4"></path>
            </g>
        </g>
    </g>
</svg>