<?xml version="1.0" encoding="UTF-8" standalone="no"?>
<svg width="49px" height="55px" viewBox="0 0 49 55" version="1.1" xmlns="http://www.w3.org/2000/svg" xmlns:xlink="http://www.w3.org/1999/xlink">
    <!-- Generator: Sketch 46.2 (44496) - http://www.bohemiancoding.com/sketch -->
    <title>Combined Shape</title>
    <desc>Created with Sketch.</desc>
    <defs></defs>
    <g id="Page-1" stroke="none" stroke-width="1" fill="none" fill-rule="evenodd">
        <g id="Contact---1-Col" transform="translate(-885.000000, -1053.000000)" fill="#A5A5A5">
            <path d="M908.194443,1100.44586 L908.194443,1088.45431 L890.808871,1089.36545 L884,1082.84263 L890.089751,1075.64383 L908.194443,1074.695 L908.194443,1070.94201 L891.637098,1069.7842 L891.790749,1067.58688 L895.306053,1067.2076 L891.885883,1066.22642 L892.303858,1060.24908 L897.874468,1059.54797 L892.40294,1058.83215 L892.595583,1056.07723 L908.194443,1057.16801 L908.194443,1053 L911.632463,1053 L911.632463,1057.40842 L932.036813,1058.83523 L938,1066.13921 L931.078327,1072.5422 L911.632463,1071.18242 L911.632463,1074.51482 L929.573108,1073.57459 L929.801698,1077.93636 L923.808349,1079.27467 L929.801398,1079.27333 L930.292227,1087.29621 L911.632463,1088.27413 L911.632463,1101.18168 C916.569639,1102.77424 919.84376,1106.27928 919.31137,1108.58531 C918.729158,1111.10715 916.806505,1109.85586 908.55084,1107.94989 C900.231193,1105.83489 898.018578,1106.32574 898.60079,1103.8039 C899.113955,1101.58114 903.294091,1099.90747 908.194443,1100.44586 Z" id="Combined-Shape" transform="translate(911.000000, 1081.500000) rotate(-13.000000) translate(-911.000000, -1081.500000) "></path>
        </g>
    </g>
</svg>