<?xml version="1.0" encoding="utf-8"?>
<!-- Generator: Adobe Illustrator 21.0.2, SVG Export Plug-In . SVG Version: 6.00 Build 0)  -->
<svg version="1.1" id="Isolation_Mode" xmlns="http://www.w3.org/2000/svg" xmlns:xlink="http://www.w3.org/1999/xlink" x="0px"
	 y="0px" width="601.2px" height="18.8px" viewBox="0 0 601.2 18.8" style="enable-background:new 0 0 601.2 18.8;"
	 xml:space="preserve">
<style type="text/css">
	.st0{fill:#FFFFFF;}
</style>
<path class="st0" d="M264.5,18.8L264.5,18.8L0,18.8V9.6c0,0,1-0.5,1.6-0.5s0.5,1.6,1,1.6c0.5,0,3.1,0,4.2-0.5c1-0.5,5.2-1,6.8-1.6
	c1.6-0.5,4.7,0,5.8,0c1,0,5.8,0.5,7.3,1c1.6,0.5,4.2,0,5.2,0c1,0,1.6,0.5,2.6,0.5c1,0,1-0.5,2.1-0.5c1,0,1,0.5,2.1,0.5
	c1,0,2.6,0.5,4.2,0c1.6-0.5,4.2,0,5.8-0.5c1.6-0.5,3.7-0.5,4.7-0.5c1,0,8.9,0.5,11,0.5c2.1,0,2.6,1,4.2,0.5c1.6-0.5,3.7-1,4.2-1
	c0.5,0,2.6,0,3.1-0.5c0.5-0.5,0-0.5,0.5-0.5c0.5,0,1,0,1.6,0c0.5,0,1,0,1.6-0.5C80.3,7,81.3,7,81.3,7s0-1,0.5-1c0.5,0,0.5,0,1,0
	s1,0,1.6,0s2.1,0,3.1-0.5c1-0.5,1-0.5,2.1-0.5s1.6,0,2.1,0.5c0.5,0.5,1,1,1.6,1s0.5,0,1,0C95,6.5,96,7,96.6,7c0.5,0,2.1-0.5,2.6-0.5
	c0.5,0,1.6,0.5,2.6,0.5c1,0,3.1,0,3.7,0s0.5,1,1.6,0.5c1-0.5,2.1-1.6,3.1-2.1c1-0.5,2.1-1,2.6-0.5c0.5,0.5,2.6-0.5,3.1-0.5
	s0.5,1,1,1c0.5,0,2.1,0,3.1,0c1,0,1-0.5,1.6-0.5s1,0,2.1,0c1,0,1.6-0.5,2.6,0c1,0.5,2.6,0,3.1,0c0.5,0,1,1,1.6,1c0.5,0,0.5,0,1,0
	c0.5,0,1-0.5,2.1-0.5c1,0,4.2,0.5,5.8,1c1.6,0.5,2.1,0.5,2.6,0c0.5-0.5,1.6-0.5,2.1-0.5c0.5,0,1,0.5,1.6,0.5c0.5,0,1,0,1.6,0
	c1.6,0,2.6,0.5,3.7,0c1-0.5,1.6-0.5,2.1-0.5c0.5,0,2.1,0.5,2.6,0.5s2.1,0,2.6-0.5c0.5-0.5,3.1,0,3.7,0c0.5,0,1,0,1.6,0
	c0.5,0,1.6,0,2.1-0.5c0.5-0.5,0.5,0,1.6-0.5c1-0.5,1.6-1.6,2.1-1.6c0.5,0,0.5,0,1.6,0c1,0,2.1,0.5,3.1,0.5s2.6,1,3.1,1.6
	c0.5,0.5,1,0,2.1,0c1,0,1.7-0.1,2.7-0.1c1,0,1.5,0.1,2-0.4c0.5-0.5,1,0,2.1,0c1,0,4.2,0,5.2,0c1,0,3.7,2.6,4.7,2.1
	c1-0.5,2.1,0,2.6-0.5c0.5-0.5,2.1,0.5,3.1,0c1-0.5,1.6,0,1.6,0s0.5-0.5,1-0.5c0.5,0,1,1,1.6,0.5c0.5-0.5,1-0.5,1.6-0.5
	c0.5,0,1.6-0.5,2.1-0.5c0.5,0,1.6,1,2.6,0.5c1-0.5,1.6-1,2.1-1c0.5,0,1-0.5,1.6-0.5c0.5,0,1,0,2.1,0c1,0,1,0,2.1-0.5
	c1-0.5,1,0.5,2.1,0c1-0.5,1.6,0,2.6,0c1,0,2.6-0.5,3.1-0.5s0.5,0,1.6,0c1,0,2.2-1.1,3.3-1.7c1-0.5,2.6-1.7,3.7-1.7s0.4,0.2,2.5,0.2
	c2.1,0,1.6,0,3.2,0.5c1.6,0.5,1.5-0.5,2,0c0.5,0.5-0.5,0.5,0.5,0.5c1,0,2.1,0.5,2.6,0c0.5-0.5-0.3-0.2,1.5-0.2c1,0,1.1,0.2,2.2,0.2
	c1,0,1,0.4,2.5,0.4c1.6,0,1.7,0.1,2.2,0.1c0.5,0,1,0,2.1,0c1,0,0-0.5,1,0c1,0.5,0.5,1,1.6,1c1,0,1.6,0.5,2.1,0.5c0.5,0,1,0.5,1,0.5
	V4c0,0,0,0,0.3,0.3c0.3,0.3,1,0,1.3,0.3c0.3,0.3,1.7,0.3,2.3,0.3s2.3,0.3,3,0c0.7-0.3,3.4,0.7,4.4,0.7s1.3-0.3,2-0.3
	s2.7,0.7,3.7,0.7c1,0,3-0.3,3.7-0.3c0.7,0,2.7,0,3.4,0s4-0.7,4.7-0.7s1.3,0.3,2.3,0.3c1,0,2,0.3,2.7,0.3s2-0.3,2.7-0.7
	c0.7-0.3,1.3,0,1.7,0c0.3,0,1,0,1.7,0s1.7,0.3,2.7,0c1-0.3,2-0.3,3-0.3c1,0,1.7,0,2.3-0.3c0.7-0.3,2.3,0,3,0s2.7-0.7,3.7-0.7
	c1,0,0.7-0.7,1.3-0.7c0.7,0,1.7,0.3,2,0.3c0.3,0,2,0,2.7,0s1-0.7,1.7-0.3s1.3,0,2,0.3s1.7-0.7,2.7-1c1-0.3,2-0.7,3-0.7
	c1,0,1.3-0.3,2.7-0.3s3.7,0.7,4.4,0.7s1.3,0.7,2,1s2,0.7,2.7,0.7s1.3,0,2-0.3c0.7-0.3,1.3-0.3,2-0.3s5,0,5.7,0s2,0,2.7-0.3
	c0.7-0.3,2,0,2.3,0c0.3,0,2.3,0.3,3.4,0.7s2.3,0.7,3,0.7s1.3-0.3,2.3-0.3c1,0,2.7-0.7,3.4-0.7s1.3,0.3,2,0.3s3.4,0,4,0s1,0,1.3,0
	c0.3,0,0.7-0.3,1-0.3c0.3,0,0.7,0.3,0.7,0.3s0.7,0.3,1.3,0c0.7-0.3,1,0.3,1.3,0.3c0.3,0,1,0,1,0s1,0,2,0c1,0,1.7-0.3,2.3,0.3
	c0.7,0.7,1,0,1.7,0s3.4,0,4,0s2.7,0.3,3.4,0.7c0.7,0.3,0.7,0.3,1.3,0.3s1.3-0.3,2-0.7c0.7-0.3,0.7-0.7,1-0.3c0.3,0.3,1.3-0.3,2-0.3
	s2.3-0.7,2.7-0.7c0.3,0,2.7-0.3,3,0c0.3,0.3,0.7,0.7,1.3,0.7c0.7,0,1.3,0,2,0s1.7,0,2,0c0.3,0,1.3,0.3,2,0.3c0.7,0,0.7,0,1.7,0
	c1,0,1,0,2.3,0.3c1.3,0.3,3,0,3.7,0.3C427,5,428,5.4,429,5.4c1,0,5-1,6-1c1,0,2.7-0.7,3.4-1s1.7-0.3,2.3,0s3.4,1.3,5,1.7
	c1.7,0.3,6.4,0,7,0s1.7,0.3,3,0.3s1.3,0,2,0s2.3-0.7,3-0.7s1,0.7,1.7,0.7s1-0.7,1.3-1c0.3-0.3,1-0.3,1.3,0c0.3,0.3,1.7,0.7,2.7,1
	c1,0.3,0.7,0,1.7,0.3c1,0.3,1-0.3,2-0.3c1,0,2-0.7,3-0.7c1,0,1.3,0.7,2,0.7s2.3-0.7,3-1c0.7-0.3,1.7,0.3,2.3,0.7
	c0.7,0.3,1.3-0.3,2-0.3s1.7,0,2.3,0s2,0.3,2.7,0.7c0.7,0.3,2,0.3,2.7,0.3s1.3,0,2-0.3s1.3-0.3,2,0c0.7,0.3,1,0.3,1.7,0.3
	s1.3,0.7,2,0.7s2,0,2.7,0s2.7-0.7,3.4-0.7s1.3,0.3,1.7,0.7c0.3,0.3,1.7,0.7,2.3,0.7s2.3-0.3,3-0.7c0.7-0.3,1.3,0,2,0.3
	c0.7,0.3,2,0.3,2.7,0.3s2.3-0.3,3-0.7c0.7-0.3,2-0.7,2.7-0.3c0.7,0.3,2.3,0.3,3,0.3c0.7,0,2.3-0.7,3.4-0.7s2,0,2.7,0
	c0.7,0,2.3-1,3-1.3c0.7-0.3,1.7-0.3,2-0.3c0.3,0,1.7,1,2,1s0.7-0.3,1-0.3c0.3,0,1,0.3,1.7,0.7c0.7,0.3,1.3,0.7,1.7,0.3
	c0.3-0.3,1.3,0,1.7,0.3c0.3,0.3,0.7,0.3,1.3,0.3s1.3,0,1.7,0c0.3,0,1-0.3,1.7,0c0.7,0.3,2.3,0,3,0c0.7,0,6.7-2.3,7.4-2.7
	c0.7-0.3,1-0.3,1.7-0.3c0.7,0,1,0,1.7,0.3c0.7,0.3,1,0.7,1.7,0.7c0.7,0,2.3-1.7,3-1.7s1.3,0.3,1.7,0.7c0.3,0.3,1,0.7,1.3,0.7
	c0.3,0,1,0,1.3,0c0.3,0,2,0.3,2.3,0.7c0.3,0.3,2,0.7,2.7,0.7c0.7,0,2-0.7,3-0.7s2-1,2.7-1c0.7,0,0.7,0.3,1.3,0.7
	c0.7,0.3,2.3,0.3,3,0.3s1.3-0.3,2-0.7c0.7-0.3,1.3-0.7,2-0.7c0.7,0,1.3,0,2,0s1.3,0.3,1.7,0.7c0.3,0.3,1,0,1.3,0
	c0.3,0,1.3-0.3,2-0.7c0.7-0.3,0.7,0,1,0.3s1.7-0.7,1.7-0.7v15.7H264.5z"/>
</svg>
